<svg width="24" height="24" viewBox="0 0 24 24" fill="none" xmlns="http://www.w3.org/2000/svg">
<path fill-rule="evenodd" clip-rule="evenodd" d="M20.5277 10.3734C20.157 9.73142 19.4777 9.52039 18.8292 9.42971C18.1755 9.33831 17.3006 9.33833 16.2424 9.33837L16.1822 9.33837C15.5521 9.33837 15.1402 9.33215 14.84 9.29043C14.5686 9.25269 14.4823 9.19683 14.4455 9.16425C14.4185 9.13614 14.3704 9.07042 14.3377 8.83344C14.2991 8.55403 14.2974 8.17089 14.2974 7.55682V7.18233C14.2975 5.59481 14.2975 4.32307 14.1753 3.41639C14.0606 2.56532 13.788 1.60948 12.8438 1.32013C11.9162 1.03587 11.1382 1.64542 10.5335 2.27384C9.88924 2.94328 9.12395 3.97873 8.16577 5.27517L5.02878 9.51948C4.41844 10.3452 3.90966 11.0335 3.6065 11.6027C3.30262 12.1733 3.08146 12.8507 3.41853 13.5266L3.41971 13.5291L3.42326 13.5363L3.4273 13.5443L3.43127 13.5519L3.43562 13.5601L3.44004 13.5683L3.44423 13.5758L3.44866 13.5836L3.45271 13.5905L3.4542 13.5929C3.8217 14.2294 4.49806 14.4522 5.15242 14.5521C5.82674 14.6551 6.72653 14.6617 7.81777 14.6617C8.45438 14.6617 8.8603 14.6631 9.15842 14.7011C9.42177 14.7347 9.50053 14.7865 9.53429 14.8163C9.5642 14.8475 9.61664 14.9205 9.65362 15.1661C9.69594 15.4471 9.70258 15.8362 9.70257 16.4432L9.70256 16.8176C9.70252 18.4051 9.70248 19.6769 9.82465 20.5836C9.93932 21.4347 10.2119 22.3905 11.1561 22.6799C12.0837 22.9641 12.8617 22.3546 13.4665 21.7262C14.1107 21.0567 14.876 20.0213 15.8342 18.7248L18.9336 14.5315C19.5644 13.678 20.0832 12.965 20.3891 12.3716C20.6885 11.7909 20.8974 11.1095 20.5634 10.4398L20.5623 10.4374L20.5587 10.4301L20.5546 10.4221L20.5507 10.4144L20.5463 10.4062L20.5418 10.398L20.5376 10.3905L20.5332 10.3827L20.5291 10.3757L20.5277 10.3734ZM11.6143 3.31395C11.0463 3.90414 10.3386 4.85906 9.33482 6.21711L6.27268 10.3602C5.61499 11.25 5.17495 11.8487 4.93044 12.3078C4.81142 12.5313 4.76674 12.6723 4.75402 12.7576C4.74617 12.8103 4.75096 12.8341 4.75724 12.8493C4.78143 12.885 4.88645 12.9941 5.37881 13.0693C5.91671 13.1514 6.69014 13.1617 7.81777 13.1617L7.86374 13.1617C8.44088 13.1616 8.94374 13.1616 9.34812 13.2132C9.7813 13.2684 10.2116 13.394 10.5679 13.7291L10.5737 13.7345L10.5794 13.7401C10.9294 14.0837 11.0717 14.5097 11.1369 14.9427C11.1992 15.3566 11.2026 15.8656 11.2026 16.4433L11.2026 16.7528C11.2025 18.4197 11.2042 19.5892 11.3112 20.3833C11.3645 20.7787 11.4362 21.0106 11.5048 21.1401C11.5562 21.2372 11.5858 21.2436 11.5941 21.2453L11.5956 21.2457L11.5971 21.2462C11.6076 21.2498 11.6445 21.2625 11.7581 21.2053C11.9001 21.1339 12.103 20.9798 12.3857 20.6861C12.9536 20.0959 13.6614 19.1409 14.6652 17.7829L17.7273 13.6399C18.3813 12.7551 18.817 12.1476 19.0559 11.6842C19.2606 11.2871 19.2383 11.1526 19.2247 11.1169C19.2022 11.0841 19.1014 10.9824 18.6215 10.9153C18.0844 10.8402 17.3159 10.8384 16.1822 10.8384C15.5794 10.8384 15.0565 10.835 14.6335 10.7761C14.1966 10.7154 13.7653 10.5839 13.4122 10.2517L13.4063 10.2463L13.4006 10.2407C13.0474 9.89397 12.9112 9.46852 12.8518 9.03865C12.7974 8.64433 12.7974 8.15601 12.7974 7.60517L12.7974 7.24712C12.7974 5.58023 12.7957 4.41077 12.6887 3.61671C12.6355 3.22131 12.5638 2.98938 12.4952 2.85986C12.4437 2.7628 12.4141 2.75644 12.4058 2.75466L12.4043 2.7543L12.4028 2.7538C12.3924 2.75018 12.3555 2.73746 12.2418 2.79466C12.0998 2.86611 11.897 3.0202 11.6143 3.31395Z" fill="#1C274C"/>
</svg>
