<svg width="24" height="24" viewBox="0 0 24 24" fill="none" xmlns="http://www.w3.org/2000/svg">
<path fill-rule="evenodd" clip-rule="evenodd" d="M22.75 8C22.75 8.41421 22.4142 8.75 22 8.75H17C16.5858 8.75 16.25 8.41421 16.25 8C16.25 7.58579 16.5858 7.25 17 7.25L22 7.25C22.4142 7.25 22.75 7.58579 22.75 8Z" fill="#1C274C"/>
<path fill-rule="evenodd" clip-rule="evenodd" d="M22.75 12.5C22.75 12.9142 22.4142 13.25 22 13.25H18C17.5858 13.25 17.25 12.9142 17.25 12.5C17.25 12.0858 17.5858 11.75 18 11.75H22C22.4142 11.75 22.75 12.0858 22.75 12.5Z" fill="#1C274C"/>
<path fill-rule="evenodd" clip-rule="evenodd" d="M13.7606 7.29221L14.1967 7.72832C14.9321 8.4637 15.5321 9.0636 15.9423 9.58512C16.3623 10.1191 16.6765 10.683 16.676 11.3489C16.6757 11.7214 16.5997 12.09 16.4526 12.4323C16.1898 13.0441 15.6781 13.4377 15.0812 13.7621C14.4981 14.0788 13.7099 14.3925 12.7436 14.777L12.5522 14.8532C11.94 15.0969 11.7792 15.1688 11.6558 15.2666C11.5468 15.353 11.453 15.4569 11.3782 15.5742C11.2935 15.707 11.2383 15.8742 11.0584 16.5082L11.0486 16.5427C10.9271 16.9707 10.8214 17.3434 10.7084 17.6318C10.5935 17.9253 10.4271 18.2542 10.1138 18.484C9.75364 18.748 9.30612 18.8644 8.86292 18.8093C8.47737 18.7613 8.17186 18.555 7.92851 18.3547C7.68939 18.1579 7.41543 17.884 7.10088 17.5694L6.04047 16.509L3.87713 18.6723C3.58424 18.9652 3.10936 18.9652 2.81647 18.6723C2.52358 18.3794 2.52358 17.9045 2.81647 17.6116L4.97981 15.4483L3.9196 14.3881C3.605 14.0735 3.33101 13.7996 3.1342 13.5604C2.93391 13.3171 2.72766 13.0116 2.67968 12.626C2.62452 12.1828 2.7409 11.7353 3.00499 11.3751C3.23472 11.0618 3.56368 10.8955 3.85714 10.7805C4.14551 10.6676 4.51825 10.5618 4.94623 10.4404L4.98078 10.4306C5.6147 10.2506 5.78196 10.1955 5.91474 10.1108C6.03199 10.036 6.13594 9.94215 6.22231 9.83314C6.32011 9.70969 6.39207 9.54894 6.63574 8.93669L6.71188 8.74538C7.09644 7.77908 7.41015 6.99081 7.72689 6.40778C8.05122 5.81079 8.44484 5.29918 9.05667 5.03631C9.39894 4.88925 9.76752 4.81326 10.14 4.81296C10.806 4.81242 11.3698 5.12663 11.9038 5.54666C12.4253 5.95688 13.0252 6.55681 13.7606 7.29221ZM8.13613 16.4833L6.5795 14.9267L6.57087 14.9179L6.56211 14.9093L5.00564 13.3528C4.65823 13.0054 4.43721 12.7832 4.29237 12.6072C4.20313 12.4988 4.17446 12.4441 4.16694 12.428C4.16295 12.3732 4.17716 12.3185 4.20735 12.2726C4.22176 12.2622 4.27344 12.2284 4.4042 12.1772C4.61641 12.0941 4.91769 12.0077 5.39033 11.8736L5.47835 11.8486C5.9825 11.7059 6.37926 11.5936 6.72138 11.3754C6.97934 11.2109 7.20803 11.0044 7.39803 10.7646C7.65003 10.4466 7.80223 10.0633 7.99563 9.57638L8.08733 9.34586C8.49458 8.32259 8.7761 7.61871 9.04494 7.12384C9.3112 6.63373 9.49862 6.47901 9.64882 6.41448C9.80439 6.34764 9.97193 6.3131 10.1413 6.31296C10.3047 6.31283 10.5381 6.3808 10.9764 6.72564C11.4191 7.07383 11.9561 7.60898 12.7348 8.38774L13.1012 8.75412C13.88 9.53288 14.4151 10.0698 14.7633 10.5125C15.1081 10.9509 15.1761 11.1842 15.176 11.3477C15.1758 11.517 15.1413 11.6845 15.0745 11.8401C15.0099 11.9903 14.8552 12.1777 14.3651 12.444C13.8702 12.7128 13.1663 12.9944 12.1431 13.4016L11.9126 13.4933C11.4256 13.6867 11.0424 13.8389 10.7243 14.0909C10.4845 14.2809 10.2781 14.5096 10.1135 14.7676C9.89531 15.1097 9.78301 15.5064 9.64031 16.0106L9.61537 16.0986C9.48123 16.5712 9.39484 16.8725 9.31172 17.0847C9.26051 17.2155 9.22673 17.2672 9.21633 17.2816C9.17039 17.3118 9.11577 17.326 9.06094 17.322C9.04484 17.3145 8.99016 17.2858 8.88173 17.1966C8.70576 17.0517 8.48354 16.8307 8.13613 16.4833Z" fill="#1C274C"/>
<path d="M22 17.75C22.4142 17.75 22.75 17.4142 22.75 17C22.75 16.5858 22.4142 16.25 22 16.25H13C12.5858 16.25 12.25 16.5858 12.25 17C12.25 17.4142 12.5858 17.75 13 17.75H22Z" fill="#1C274C"/>
</svg>
