<svg width="24" height="24" viewBox="0 0 24 24" fill="none" xmlns="http://www.w3.org/2000/svg">
<path fill-rule="evenodd" clip-rule="evenodd" d="M10.3093 2.24999H13.6907C13.9071 2.24985 14.0956 2.24973 14.2736 2.27816C14.9769 2.39046 15.5855 2.82912 15.9145 3.46081C15.9978 3.6207 16.0573 3.79958 16.1256 4.00491L16.2372 4.33981C16.2561 4.3965 16.2615 4.41255 16.266 4.42519C16.4412 4.9093 16.8952 5.23656 17.4098 5.24961C17.4234 5.24995 17.4399 5.25001 17.5 5.25001H20.5C20.9142 5.25001 21.25 5.58579 21.25 6.00001C21.25 6.41422 20.9142 6.75001 20.5 6.75001H3.49991C3.08569 6.75001 2.74991 6.41422 2.74991 6.00001C2.74991 5.58579 3.08569 5.25001 3.49991 5.25001H6.49999C6.56004 5.25001 6.57661 5.24995 6.59014 5.24961C7.10479 5.23656 7.55881 4.90932 7.73393 4.42521C7.73854 4.41248 7.74383 4.39678 7.76282 4.33981L7.87443 4.00493C7.94272 3.79961 8.00223 3.6207 8.08549 3.46081C8.41444 2.82912 9.02304 2.39046 9.72634 2.27816C9.90436 2.24973 10.0929 2.24985 10.3093 2.24999ZM9.00806 5.25001C9.05957 5.14898 9.10521 5.04401 9.14448 4.93545C9.15641 4.90248 9.1681 4.86739 9.18313 4.82231L9.28293 4.52289C9.3741 4.24938 9.39509 4.1936 9.41592 4.15361C9.52557 3.94304 9.72843 3.79683 9.96287 3.75939C10.0074 3.75228 10.0669 3.75001 10.3553 3.75001H13.6447C13.933 3.75001 13.9926 3.75228 14.0371 3.75939C14.2716 3.79683 14.4744 3.94304 14.5841 4.15361C14.6049 4.1936 14.6259 4.24937 14.7171 4.52289L14.8168 4.82213L14.8555 4.93547C14.8948 5.04402 14.9404 5.14899 14.9919 5.25001H9.00806Z" fill="#1C274C"/>
<path d="M5.915 8.45012C5.88744 8.03682 5.53007 7.72412 5.11677 7.75167C4.70347 7.77922 4.39077 8.1366 4.41832 8.5499L4.88177 15.5016C4.96726 16.7844 5.03633 17.8205 5.1983 18.6336C5.3667 19.4789 5.65312 20.185 6.24471 20.7384C6.83631 21.2919 7.55985 21.5307 8.41451 21.6425C9.23653 21.75 10.275 21.75 11.5605 21.75H12.4394C13.725 21.75 14.7635 21.75 15.5855 21.6425C16.4401 21.5307 17.1637 21.2919 17.7553 20.7384C18.3469 20.185 18.6333 19.4789 18.8017 18.6336C18.9637 17.8205 19.0327 16.7844 19.1182 15.5016L19.5817 8.5499C19.6092 8.1366 19.2965 7.77922 18.8832 7.75167C18.4699 7.72412 18.1125 8.03682 18.085 8.45012L17.625 15.3492C17.5352 16.6971 17.4712 17.6349 17.3306 18.3405C17.1942 19.025 17.0039 19.3873 16.7305 19.6431C16.4571 19.8989 16.0829 20.0647 15.3909 20.1552C14.6775 20.2485 13.7375 20.25 12.3867 20.25H11.6133C10.2625 20.25 9.32246 20.2485 8.60906 20.1552C7.91706 20.0647 7.5429 19.8989 7.26949 19.6431C6.99607 19.3873 6.80574 19.025 6.66939 18.3405C6.52882 17.6349 6.4648 16.6971 6.37494 15.3492L5.915 8.45012Z" fill="#1C274C"/>
<path d="M9.42537 10.2537C9.83753 10.2125 10.2051 10.5132 10.2463 10.9254L10.7463 15.9254C10.7875 16.3375 10.4868 16.7051 10.0746 16.7463C9.66247 16.7875 9.29494 16.4868 9.25372 16.0746L8.75372 11.0746C8.71251 10.6625 9.01321 10.2949 9.42537 10.2537Z" fill="#1C274C"/>
<path d="M14.5746 10.2537C14.9868 10.2949 15.2875 10.6625 15.2463 11.0746L14.7463 16.0746C14.7051 16.4868 14.3375 16.7875 13.9254 16.7463C13.5132 16.7051 13.2125 16.3375 13.2537 15.9254L13.7537 10.9254C13.7949 10.5132 14.1625 10.2125 14.5746 10.2537Z" fill="#1C274C"/>
</svg>
