<svg width="24" height="24" viewBox="0 0 24 24" fill="none" xmlns="http://www.w3.org/2000/svg">
<path fill-rule="evenodd" clip-rule="evenodd" d="M5.11677 7.75167C5.53007 7.72412 5.88744 8.03682 5.915 8.45012L6.37494 15.3492C6.4648 16.6971 6.52882 17.6349 6.66939 18.3405C6.80574 19.025 6.99607 19.3873 7.26949 19.6431C7.5429 19.8989 7.91706 20.0647 8.60906 20.1552C9.32246 20.2485 10.2625 20.25 11.6133 20.25H12.3867C13.7375 20.25 14.6775 20.2485 15.3909 20.1552C16.0829 20.0647 16.4571 19.8989 16.7305 19.6431C17.0039 19.3873 17.1942 19.025 17.3306 18.3405C17.4712 17.6349 17.5352 16.6971 17.625 15.3492L18.085 8.45012C18.1125 8.03682 18.4699 7.72412 18.8832 7.75167C19.2965 7.77922 19.6092 8.1366 19.5817 8.5499L19.1182 15.5016C19.0327 16.7844 18.9637 17.8205 18.8017 18.6336C18.6333 19.4789 18.3469 20.185 17.7553 20.7384C17.1637 21.2919 16.4401 21.5307 15.5855 21.6425C14.7634 21.75 13.725 21.75 12.4394 21.75H11.5606C10.275 21.75 9.23654 21.75 8.41451 21.6425C7.55985 21.5307 6.83631 21.2919 6.24471 20.7384C5.65312 20.185 5.3667 19.4789 5.1983 18.6336C5.03632 17.8205 4.96727 16.7844 4.88177 15.5016L4.41832 8.5499C4.39077 8.1366 4.70347 7.77922 5.11677 7.75167Z" fill="#1C274C"/>
<path fill-rule="evenodd" clip-rule="evenodd" d="M10.3553 2.25001L10.3093 2.24999C10.0929 2.24985 9.90436 2.24973 9.72634 2.27816C9.02304 2.39046 8.41444 2.82912 8.08549 3.46081C8.00223 3.62071 7.94272 3.79961 7.87443 4.00493L7.85991 4.04855L7.76282 4.33981C7.74383 4.39678 7.73854 4.41248 7.73393 4.42521C7.55881 4.90933 7.10479 5.23656 6.59014 5.24961C6.57661 5.24995 6.56004 5.25001 6.49999 5.25001H3.49991C3.08569 5.25001 2.74991 5.58579 2.74991 6.00001C2.74991 6.41422 3.08569 6.75001 3.49991 6.75001L6.50856 6.75001L6.5253 6.75001H17.4747L17.4914 6.75001L20.5 6.75001C20.9142 6.75001 21.25 6.41422 21.25 6.00001C21.25 5.58579 20.9142 5.25001 20.5 5.25001H17.5C17.4399 5.25001 17.4234 5.24995 17.4098 5.24961C16.8952 5.23656 16.4412 4.9093 16.266 4.42519C16.2615 4.41255 16.2561 4.3965 16.2372 4.33981L16.1401 4.04855L16.1256 4.00491C16.0573 3.79958 15.9978 3.6207 15.9145 3.46081C15.5855 2.82912 14.9769 2.39046 14.2736 2.27816C14.0956 2.24973 13.9071 2.24985 13.6907 2.24999L13.6447 2.25001H10.3553ZM9.14448 4.93545C9.10521 5.04401 9.05957 5.14898 9.00806 5.25001H14.9919C14.9404 5.14899 14.8948 5.04402 14.8555 4.93547L14.8168 4.82213L14.7171 4.52289C14.6259 4.24937 14.6049 4.1936 14.5841 4.15361C14.4744 3.94304 14.2716 3.79683 14.0371 3.75939C13.9926 3.75228 13.933 3.75001 13.6447 3.75001H10.3553C10.0669 3.75001 10.0074 3.75228 9.96287 3.75939C9.72843 3.79683 9.52557 3.94304 9.41592 4.15361C9.39509 4.1936 9.3741 4.24938 9.28293 4.52289L9.18313 4.82231C9.1681 4.86739 9.15641 4.90248 9.14448 4.93545Z" fill="#1C274C"/>
</svg>
