<svg width="24" height="24" viewBox="0 0 24 24" fill="none" xmlns="http://www.w3.org/2000/svg">
<path fill-rule="evenodd" clip-rule="evenodd" d="M10.6925 4.95063C9.52269 2.85451 6.68755 2.72679 5.00748 4.40686C4.10882 5.30552 3.31033 6.50044 3.2571 7.90463C3.17821 9.98556 3.71559 13.4408 7.13738 16.8626C10.5592 20.2844 14.0144 20.8218 16.0953 20.7429C17.4995 20.6896 18.6944 19.8911 19.5931 18.9925C21.2732 17.3124 21.1455 14.4773 19.0493 13.3075L17.8864 12.6584C16.5176 11.8945 14.7905 12.2201 13.6585 13.3383C13.6381 13.3533 13.5231 13.4322 13.3221 13.442C13.0657 13.4545 12.473 13.3632 11.5548 12.4451C10.6364 11.5267 10.5454 10.9339 10.5579 10.6776C10.5678 10.4768 10.6467 10.3618 10.6616 10.3414C11.7799 9.20946 12.1054 7.48238 11.3415 6.11356L10.6925 4.95063ZM6.06814 5.46752C7.17397 4.36169 8.78366 4.60828 9.38268 5.68163L10.0317 6.84456C10.4354 7.56797 10.2977 8.58411 9.58439 9.29743C9.51474 9.36708 9.09849 9.81271 9.05973 10.6042C9.02006 11.4146 9.38398 12.3956 10.4942 13.5058C11.604 14.6156 12.5848 14.9797 13.395 14.9403C14.1865 14.9018 14.6323 14.4858 14.7023 14.4158C15.4157 13.7025 16.432 13.5645 17.1554 13.9683L18.3183 14.6173C19.3917 15.2163 19.6383 16.826 18.5324 17.9318C17.7571 18.7072 16.9013 19.2112 16.0385 19.2439C14.3032 19.3097 11.2774 18.8813 8.19804 15.8019C5.11867 12.7226 4.69023 9.6968 4.75602 7.96146C4.78873 7.09868 5.29279 6.24287 6.06814 5.46752Z" fill="#1C274C"/>
<path d="M16 4.24996C15.5858 4.24996 15.25 4.58574 15.25 4.99996C15.25 5.41417 15.5858 5.74996 16 5.74996H17.1893L14.4697 8.46963C14.1768 8.76252 14.1768 9.23739 14.4697 9.53029C14.7626 9.82318 15.2374 9.82318 15.5303 9.53029L18.25 6.81062V7.99996C18.25 8.41417 18.5858 8.74996 19 8.74996C19.4142 8.74996 19.75 8.41417 19.75 7.99996V4.99996C19.75 4.58574 19.4142 4.24996 19 4.24996H16Z" fill="#1C274C"/>
</svg>
