<svg width="24" height="24" viewBox="0 0 24 24" fill="none" xmlns="http://www.w3.org/2000/svg">
<path fill-rule="evenodd" clip-rule="evenodd" d="M10.4348 0.306171C10.7164 0.421588 10.9004 0.695781 10.9004 1.00016V1.97787C11.2467 1.9769 11.6074 1.9769 11.9829 1.9769L12.0577 1.9769C14.1301 1.97688 15.7631 1.97687 17.0391 2.15104C18.3498 2.32993 19.3952 2.70502 20.2163 3.53859C21.0359 4.3706 21.4033 5.42721 21.5788 6.75235C21.75 8.04555 21.75 9.70138 21.75 11.8072V11.9197C21.75 14.0255 21.75 15.6814 21.5788 16.9746C21.4033 18.2997 21.0359 19.3563 20.2163 20.1883C19.3952 21.0219 18.3498 21.397 17.0391 21.5759C15.7631 21.75 14.1301 21.75 12.0577 21.75H11.9423C9.86991 21.75 8.23694 21.75 6.96085 21.5759C5.65019 21.397 4.60483 21.0219 3.78371 20.1883C2.96414 19.3563 2.59674 18.2997 2.42124 16.9746C2.24998 15.6814 2.24999 14.0255 2.25 11.9197V11.8072C2.24999 9.70139 2.24998 8.04556 2.42124 6.75235C2.59674 5.42721 2.96414 4.3706 3.78371 3.53859C4.07439 3.2435 4.54925 3.23993 4.84434 3.53061C5.13943 3.82129 5.14301 4.29615 4.85233 4.59124C4.35388 5.09725 4.06227 5.7864 3.90826 6.94928C3.75155 8.13259 3.75 9.68906 3.75 11.8635C3.75 14.0379 3.75155 15.5943 3.90826 16.7776C4.06227 17.9405 4.35388 18.6297 4.85233 19.1357C5.34923 19.6401 6.02354 19.934 7.1637 20.0896C8.32662 20.2484 9.85717 20.25 12 20.25C14.1428 20.25 15.6734 20.2484 16.8363 20.0896C17.9765 19.934 18.6508 19.6401 19.1477 19.1357C19.6461 18.6297 19.9377 17.9405 20.0917 16.7776C20.2485 15.5943 20.25 14.0379 20.25 11.8635C20.25 9.68906 20.2485 8.13259 20.0917 6.94928C19.9377 5.7864 19.6461 5.09725 19.1477 4.59124C18.6508 4.08679 17.9765 3.79288 16.8363 3.63726C15.6734 3.47854 14.1428 3.4769 12 3.4769C11.6146 3.4769 11.2486 3.47692 10.9004 3.4779V4.55421C10.9004 4.85859 10.7165 5.13278 10.4348 5.2482C10.1532 5.36362 9.8297 5.29737 9.6161 5.08053L7.86569 3.30357C7.57811 3.01162 7.5781 2.54289 7.86567 2.25094L9.61608 0.473856C9.82968 0.257006 10.1532 0.190754 10.4348 0.306171Z" fill="#1C274C"/>
<path d="M16.0303 10.0303C16.3232 9.73744 16.3232 9.26256 16.0303 8.96967C15.7374 8.67678 15.2626 8.67678 14.9697 8.96967L10.5 13.4393L9.03033 11.9697C8.73744 11.6768 8.26256 11.6768 7.96967 11.9697C7.67678 12.2626 7.67678 12.7374 7.96967 13.0303L9.96967 15.0303C10.2626 15.3232 10.7374 15.3232 11.0303 15.0303L16.0303 10.0303Z" fill="#1C274C"/>
</svg>
