<svg width="24" height="24" viewBox="0 0 24 24" fill="none" xmlns="http://www.w3.org/2000/svg">
<path d="M15.6646 2.82916C16.0351 2.64392 16.4856 2.79409 16.6708 3.16457L17.1708 4.16457C17.3561 4.53505 17.2059 4.98556 16.8354 5.1708C16.4649 5.35604 16.0144 5.20588 15.8292 4.83539L15.3292 3.83539C15.1439 3.46491 15.2941 3.0144 15.6646 2.82916Z" fill="#1C274C"/>
<path d="M18.8292 7.16457C19.0144 6.79409 19.4649 6.64392 19.8354 6.82916L20.8354 7.32916C21.2059 7.5144 21.3561 7.96491 21.1708 8.33539C20.9856 8.70587 20.5351 8.85604 20.1646 8.6708L19.1646 8.1708C18.7941 7.98556 18.6439 7.53505 18.8292 7.16457Z" fill="#1C274C"/>
<path d="M20.5303 4.53031C20.8232 4.23742 20.8232 3.76254 20.5303 3.46965C20.2374 3.17676 19.7626 3.17676 19.4697 3.46965L18.4697 4.46965C18.1768 4.76254 18.1768 5.23742 18.4697 5.53031C18.7626 5.8232 19.2374 5.8232 19.5303 5.53031L20.5303 4.53031Z" fill="#1C274C"/>
<path d="M17 14.5C17 18.6421 13.6421 22 9.5 22C5.35786 22 2 18.6421 2 14.5C2 10.3578 5.35786 6.99998 9.5 6.99998C13.6421 6.99998 17 10.3578 17 14.5Z" fill="#1C274C"/>
<path d="M17.5302 7.53031L16.3722 8.68835C16.0486 8.30612 15.6938 7.95125 15.3115 7.62769L16.4696 6.46965C16.7625 6.17676 17.2373 6.17676 17.5302 6.46965C17.8231 6.76254 17.8231 7.23742 17.5302 7.53031Z" fill="#1C274C"/>
</svg>
