<svg width="24" height="24" viewBox="0 0 24 24" fill="none" xmlns="http://www.w3.org/2000/svg">
<path d="M11.25 2.07343C10.6437 2.18652 9.93159 2.43029 8.83772 2.80472L8.26491 3.0008C5.25832 4.02996 3.75503 4.54455 3.37752 5.08242C3.00825 5.60854 3.00018 7.14975 3 10.2094L11.25 7.45944V2.07343Z" fill="#1C274C"/>
<path d="M11.25 9.04058L3 11.7906V11.9914C3 17.6294 7.23896 20.3655 9.89856 21.5273C10.4093 21.7504 10.7392 21.8945 11.25 21.9597V9.04058Z" fill="#1C274C"/>
<path d="M12.75 21.9597V9.04058L21 11.7906V11.9914C21 17.6294 16.761 20.3655 14.1014 21.5273C13.5907 21.7504 13.2608 21.8945 12.75 21.9597Z" fill="#1C274C"/>
<path d="M12.75 7.45944V2.07343C13.3563 2.18652 14.0684 2.43029 15.1623 2.80473L15.7351 3.0008C18.7417 4.02996 20.245 4.54455 20.6225 5.08242C20.9918 5.60854 20.9998 7.14975 21 10.2094L12.75 7.45944Z" fill="#1C274C"/>
</svg>
