<svg width="24" height="24" viewBox="0 0 24 24" fill="none" xmlns="http://www.w3.org/2000/svg">
<path fill-rule="evenodd" clip-rule="evenodd" d="M11.1988 2.92004C10.7812 3.04911 10.2417 3.24516 9.48774 3.51948C8.42173 3.90731 7.16774 4.28277 6.06789 4.38275C5.79401 4.40765 5.59696 4.42558 5.45168 4.44093C5.37954 4.44855 5.32551 4.45498 5.28477 4.46065C5.26469 4.46344 5.24959 4.46581 5.2385 4.46772L5.2261 4.46999C5.22321 4.47056 5.2219 4.47086 5.22194 4.47085C4.88783 4.54708 4.68143 4.67522 4.54858 4.82069C4.41573 4.96617 4.3068 5.18332 4.26114 5.52296C4.25183 5.59216 4.24999 5.71912 4.24999 6.13759V14.2501H19.75V6.13759C19.75 5.71912 19.7481 5.59216 19.7388 5.52296C19.6932 5.18332 19.5842 4.96617 19.4514 4.82069C19.3185 4.67522 19.1122 4.54708 18.778 4.47085C18.7781 4.47086 18.7768 4.47056 18.7739 4.46999L18.7615 4.46772C18.7504 4.46581 18.7353 4.46344 18.7152 4.46065C18.6745 4.45498 18.6204 4.44855 18.5483 4.44093C18.403 4.42558 18.2059 4.40765 17.9321 4.38275C16.8322 4.28277 15.5782 3.90731 14.5122 3.51948C13.7582 3.24516 13.2187 3.04911 12.8012 2.92004C12.3773 2.78903 12.1472 2.74976 12 2.74976C11.8528 2.74976 11.6226 2.78903 11.1988 2.92004ZM21.25 14.2678V6.13759C21.25 6.1153 21.25 6.09337 21.25 6.07182C21.2501 5.74788 21.2502 5.50697 21.2255 5.32308C21.148 4.74677 20.9388 4.22502 20.559 3.80919C20.1793 3.39335 19.6786 3.13778 19.1117 3.00843C18.9306 2.96711 18.6175 2.93873 18.1676 2.89795C18.135 2.89501 18.1018 2.892 18.0679 2.88891C17.1639 2.80673 16.0555 2.48475 15.0251 2.10987L15.0052 2.10263C14.2754 1.83712 13.7012 1.62822 13.2441 1.48693C12.7891 1.3463 12.3816 1.24976 12 1.24976C11.6184 1.24976 11.2108 1.3463 10.7559 1.48693C10.2988 1.62822 9.72457 1.83712 8.99477 2.10264L8.97489 2.10987C7.94451 2.48475 6.83609 2.80673 5.93209 2.88891C5.89815 2.892 5.86493 2.89501 5.83242 2.89795C5.38244 2.93874 5.06939 2.96711 4.88828 3.00843C4.32136 3.13778 3.82069 3.39335 3.44094 3.80919C3.0612 4.22502 2.852 4.74677 2.77451 5.32308C2.74979 5.50697 2.74987 5.74788 2.74997 6.07182C2.74998 6.09338 2.74999 6.1153 2.74999 6.13759V14.2678C1.90286 14.3892 1.2468 15.118 1.25174 16.0043C1.25776 17.0858 1.28364 17.9872 1.41894 18.7238C1.55817 19.4817 1.82341 20.1268 2.34834 20.6517C2.86864 21.172 3.50548 21.436 4.24999 21.5762V22.0001C4.24999 22.4143 4.58577 22.7501 4.99999 22.7501C5.4142 22.7501 5.74999 22.4143 5.74999 22.0001V21.7244C6.38924 21.7501 7.11875 21.7501 7.94512 21.7501H16.0549C16.8812 21.7501 17.6107 21.7501 18.25 21.7244V22.0001C18.25 22.4143 18.5858 22.7501 19 22.7501C19.4142 22.7501 19.75 22.4143 19.75 22.0001V21.5762C20.4945 21.436 21.1313 21.172 21.6516 20.6517C22.1766 20.1268 22.4418 19.4817 22.581 18.7238C22.7163 17.9872 22.7422 17.0858 22.7482 16.0043C22.7532 15.118 22.0971 14.3892 21.25 14.2678ZM12.75 20.2501H16C17.4354 20.2501 18.4365 20.2485 19.1919 20.1469C19.9256 20.0483 20.3142 19.8678 20.591 19.5911C20.8344 19.3476 21.0016 19.0196 21.1057 18.4528C21.2138 17.8645 21.2422 17.0895 21.2483 15.996C21.249 15.8632 21.1401 15.7501 21 15.7501H12.75V20.2501ZM11.25 15.7501V20.2501H7.99999C6.56457 20.2501 5.56346 20.2485 4.80811 20.1469C4.07433 20.0483 3.68576 19.8678 3.409 19.5911C3.16554 19.3476 2.99837 19.0196 2.89425 18.4528C2.7862 17.8645 2.7578 17.0895 2.75171 15.996C2.75097 15.8632 2.85986 15.7501 2.99999 15.7501H11.25ZM11.0303 6.46976C11.3232 6.76265 11.3232 7.23753 11.0303 7.53042L10.0303 8.53042C9.73742 8.82331 9.26255 8.82331 8.96966 8.53042C8.67676 8.23753 8.67676 7.76265 8.96966 7.46976L9.96966 6.46976C10.2626 6.17687 10.7374 6.17687 11.0303 6.46976ZM14.0303 7.46976C14.3232 7.76265 14.3232 8.23753 14.0303 8.53042L11.0303 11.5304C10.7374 11.8233 10.2626 11.8233 9.96966 11.5304C9.67676 11.2375 9.67676 10.7627 9.96966 10.4698L12.9697 7.46976C13.2625 7.17687 13.7374 7.17687 14.0303 7.46976ZM15.0303 10.4698C15.3232 10.7627 15.3232 11.2375 15.0303 11.5304L14.0303 12.5304C13.7374 12.8233 13.2625 12.8233 12.9697 12.5304C12.6768 12.2375 12.6768 11.7627 12.9697 11.4698L13.9697 10.4698C14.2625 10.1769 14.7374 10.1769 15.0303 10.4698ZM6.24999 18.0001C6.24999 17.5859 6.58577 17.2501 6.99999 17.2501H8.99999C9.4142 17.2501 9.74999 17.5859 9.74999 18.0001C9.74999 18.4143 9.4142 18.7501 8.99999 18.7501H6.99999C6.58577 18.7501 6.24999 18.4143 6.24999 18.0001ZM14.25 18.0001C14.25 17.5859 14.5858 17.2501 15 17.2501H17C17.4142 17.2501 17.75 17.5859 17.75 18.0001C17.75 18.4143 17.4142 18.7501 17 18.7501H15C14.5858 18.7501 14.25 18.4143 14.25 18.0001Z" fill="#1C274C"/>
</svg>
