<svg width="24" height="24" viewBox="0 0 24 24" fill="none" xmlns="http://www.w3.org/2000/svg">
<path fill-rule="evenodd" clip-rule="evenodd" d="M12.9387 4.73567C13.3512 4.6981 13.7161 5.00204 13.7537 5.41455C13.8025 5.95082 13.8931 6.53385 14.0452 7.14735C14.1448 7.5494 13.8997 7.9561 13.4976 8.05573C13.0955 8.15537 12.6889 7.91021 12.5892 7.50816C12.4173 6.81445 12.315 6.15583 12.2599 5.5506C12.2223 5.1381 12.5262 4.77324 12.9387 4.73567ZM5.23957 9.18078C5.47836 8.84233 5.94631 8.76153 6.28477 9.00032C6.78134 9.35067 7.30056 9.7686 7.81538 10.2643C8.11375 10.5516 8.12271 11.0264 7.8354 11.3248C7.54809 11.6232 7.0733 11.6321 6.77493 11.3448C6.31964 10.9064 5.86003 10.5364 5.42003 10.226C5.08157 9.98719 5.00078 9.51924 5.23957 9.18078ZM13.8362 8.99623C14.2095 8.81685 14.6576 8.97409 14.837 9.34745C14.9607 9.60493 15.0972 9.86441 15.2476 10.1249C15.398 10.3855 15.5545 10.6334 15.7156 10.8693C15.9493 11.2113 15.8614 11.678 15.5194 11.9116C15.1773 12.1453 14.7107 12.0574 14.477 11.7154C14.2949 11.4487 14.1182 11.1688 13.9486 10.8749C13.7789 10.5811 13.6248 10.2881 13.4849 9.99706C13.3056 9.6237 13.4628 9.17562 13.8362 8.99623ZM8.48062 12.0883C8.82265 11.8546 9.28932 11.9425 9.52296 12.2845C9.70511 12.5512 9.88179 12.8311 10.0514 13.1249C10.2211 13.4188 10.3752 13.7118 10.515 14.0028C10.6944 14.3762 10.5372 14.8243 10.1638 15.0037C9.79047 15.183 9.34239 15.0258 9.163 14.6524C9.03929 14.395 8.90282 14.1355 8.7524 13.8749C8.60198 13.6144 8.44549 13.3665 8.28436 13.1306C8.05072 12.7886 8.13859 12.3219 8.48062 12.0883ZM16.1646 12.6751C16.4519 12.3767 16.9267 12.3678 17.2251 12.6551C17.6803 13.0935 18.14 13.4635 18.58 13.7739C18.9184 14.0127 18.9992 14.4807 18.7604 14.8191C18.5216 15.1576 18.0537 15.2384 17.7152 14.9996C17.2186 14.6492 16.6994 14.2313 16.1846 13.7356C15.8862 13.4482 15.8773 12.9735 16.1646 12.6751ZM10.5024 15.9442C10.9044 15.8445 11.3111 16.0897 11.4108 16.4917C11.5827 17.1854 11.685 17.8441 11.7401 18.4493C11.7777 18.8618 11.4738 19.2267 11.0613 19.2642C10.6487 19.3018 10.2839 18.9979 10.2463 18.5854C10.1975 18.0491 10.1068 17.466 9.95481 16.8525C9.85518 16.4505 10.1003 16.0438 10.5024 15.9442Z" fill="#1C274C"/>
<path fill-rule="evenodd" clip-rule="evenodd" d="M13.286 1.32656C11.0552 1.05616 8.72008 1.48058 6.62499 2.69018C1.48335 5.65871 -0.278309 12.2333 2.69022 17.375C5.65875 22.5166 12.2333 24.2783 17.375 21.3097C19.4701 20.1001 21.0052 18.29 21.8864 16.2229C23.1662 13.2208 23.0685 9.67119 21.3098 6.62495C19.551 3.57871 16.5258 1.71926 13.286 1.32656ZM13.7803 3.08058C13.7311 3.49185 13.3578 3.78534 12.9465 3.7361C12.5352 3.68686 12.2417 3.31353 12.291 2.90226C12.2971 2.85105 12.3034 2.80154 12.3098 2.75378C10.6382 2.69604 8.93112 3.09078 7.37499 3.98921C5.81966 4.88719 4.62377 6.16864 3.83779 7.64519C3.88231 7.66353 3.92829 7.68282 3.97567 7.7031C4.35647 7.86609 4.53303 8.30692 4.37004 8.68772C4.20705 9.06852 3.76622 9.24508 3.38542 9.08209C3.33571 9.06081 3.28795 9.04086 3.24227 9.02219C2.41539 11.4573 2.6024 14.2228 3.98926 16.6249C5.37611 19.0271 7.67767 20.5718 10.1999 21.0732C10.2066 21.0243 10.2132 20.973 10.2196 20.9193C10.2689 20.508 10.6422 20.2146 11.0535 20.2638C11.4648 20.313 11.7583 20.6864 11.709 21.0976C11.7029 21.1488 11.6966 21.1983 11.6902 21.246C13.3619 21.3036 15.0697 20.9087 16.625 20.0107C18.1811 19.1123 19.3765 17.8313 20.1623 16.3548C20.1178 16.3364 20.0717 16.3171 20.0243 16.2968C19.6435 16.1338 19.467 15.693 19.63 15.3122C19.7929 14.9314 20.2338 14.7548 20.6146 14.9178C20.6643 14.9391 20.7121 14.959 20.7577 14.9777C21.5851 12.5413 21.3973 9.77663 20.0107 7.37495C18.6241 4.97327 16.3237 3.42833 13.8 2.92663C13.7934 2.97554 13.7868 3.02688 13.7803 3.08058Z" fill="#1C274C"/>
</svg>
