<svg width="24" height="24" viewBox="0 0 24 24" fill="none" xmlns="http://www.w3.org/2000/svg">
<path fill-rule="evenodd" clip-rule="evenodd" d="M12.4507 2.75971C10.7344 2.67427 8.97502 3.06556 7.37521 3.98921C5.77616 4.91243 4.55703 6.24098 3.77269 7.77016C4.1379 8.00364 4.63834 8.35363 5.21448 8.8374C6.39083 9.82516 7.88497 11.3725 9.18542 13.625C10.4859 15.8774 11.0789 17.9451 11.3461 19.4577C11.477 20.1986 11.5299 20.8071 11.5495 21.2401C13.266 21.3254 15.0261 20.9339 16.6252 20.0107C18.225 19.087 19.4436 17.759 20.2277 16.2299C19.8625 15.9965 19.3619 15.6464 18.7856 15.1626C17.6092 14.1748 16.115 12.6274 14.8146 10.375C13.5141 8.12253 12.9212 6.05486 12.654 4.54221C12.5231 3.80123 12.4702 3.19275 12.4507 2.75971ZM13.9649 2.96091C13.9898 3.31003 14.0385 3.75674 14.1311 4.28129C14.373 5.65056 14.9141 7.54732 16.1136 9.62499C17.3132 11.7027 18.6853 13.1197 19.7502 14.0138C20.1581 14.3563 20.5207 14.6218 20.8106 14.818C21.5766 12.421 21.3673 9.7243 20.0109 7.37495C18.6545 5.02559 16.4237 3.49606 13.9649 2.96091ZM10.0353 21.0389C10.0103 20.6898 9.96166 20.2432 9.869 19.7187C9.62708 18.3494 9.08593 16.4527 7.88638 14.375C6.68684 12.2973 5.31476 10.8803 4.24991 9.98614C3.84208 9.6437 3.47964 9.37824 3.18979 9.18211C2.42434 11.5778 2.63289 14.2753 3.98947 16.6249C5.34605 18.9746 7.57781 20.5039 10.0353 21.0389ZM6.62521 2.69018C8.72029 1.48058 11.0554 1.05616 13.2862 1.32656C16.526 1.71926 19.5512 3.57871 21.31 6.62495C23.0687 9.67119 23.1664 13.2208 21.8867 16.2229C21.0054 18.29 19.4703 20.1001 17.3752 21.3097C12.2336 24.2783 5.65897 22.5166 2.69043 17.375C-0.278096 12.2333 1.48356 5.65871 6.62521 2.69018Z" fill="#1C274C"/>
</svg>
