<svg width="24" height="24" viewBox="0 0 24 24" fill="none" xmlns="http://www.w3.org/2000/svg">
<path fill-rule="evenodd" clip-rule="evenodd" d="M4.58152 6.01062C5.27229 4.99494 6.71514 5.03283 7.44344 5.90962C8.42541 7.09179 9.80978 8.25007 12 8.25007C14.2278 8.25007 15.5909 7.32019 16.5186 6.15395C17.24 5.24698 18.7774 5.10127 19.5335 6.17717C20.152 7.05715 20.8279 7.75807 22.1623 8.05377C22.5667 8.14339 22.8219 8.54388 22.7322 8.94828C22.6426 9.35268 22.2421 9.60786 21.8377 9.51824C19.9967 9.11026 19.0391 8.08238 18.3063 7.03964C18.2577 6.97048 18.1708 6.91941 18.0398 6.92175C17.9038 6.92418 17.773 6.98646 17.6925 7.0877C16.5172 8.56531 14.7411 9.75007 12 9.75007C9.17715 9.75007 7.41072 8.21777 6.28959 6.86807L6.86651 6.38884L6.28959 6.86807C6.22434 6.78952 6.12735 6.74814 6.02869 6.75014C5.93334 6.75206 5.86397 6.79224 5.82185 6.85417C5.07568 7.95131 4.11841 9.08474 2.16228 9.51824C1.75788 9.60786 1.35739 9.35268 1.26777 8.94828C1.17815 8.54388 1.43333 8.14339 1.83774 8.05377C3.24965 7.74088 3.92591 6.9746 4.58152 6.01062ZM4.58152 11.0106C5.27229 9.99494 6.71514 10.0328 7.44344 10.9096C8.42541 12.0918 9.80978 13.2501 12 13.2501C14.2278 13.2501 15.5909 12.3202 16.5186 11.154C17.24 10.247 18.7774 10.1013 19.5335 11.1772C20.152 12.0572 20.8279 12.7581 22.1623 13.0538C22.5667 13.1434 22.8219 13.5439 22.7322 13.9483C22.6426 14.3527 22.2421 14.6079 21.8377 14.5182C19.9967 14.1103 19.0391 13.0824 18.3063 12.0396C18.2577 11.9705 18.1708 11.9194 18.0398 11.9217C17.9038 11.9242 17.773 11.9865 17.6925 12.0877C16.5172 13.5653 14.7411 14.7501 12 14.7501C9.17715 14.7501 7.41072 13.2178 6.28959 11.8681C6.22435 11.7895 6.12735 11.7481 6.02869 11.7501C5.93334 11.7521 5.86397 11.7922 5.82185 11.8542C5.07568 12.9513 4.11841 14.0847 2.16228 14.5182C1.75788 14.6079 1.35739 14.3527 1.26777 13.9483C1.17815 13.5439 1.43333 13.1434 1.83774 13.0538C3.24965 12.7409 3.92591 11.9746 4.58152 11.0106ZM4.58152 16.0106C5.27229 14.9949 6.71514 15.0328 7.44344 15.9096C8.42541 17.0918 9.80978 18.2501 12 18.2501C14.2278 18.2501 15.5909 17.3202 16.5186 16.1539C17.24 15.247 18.7774 15.1013 19.5335 16.1772C20.152 17.0572 20.8279 17.7581 22.1623 18.0538C22.5667 18.1434 22.8219 18.5439 22.7322 18.9483C22.6426 19.3527 22.2421 19.6079 21.8377 19.5182C19.9967 19.1103 19.0391 18.0824 18.3063 17.0396C18.2577 16.9705 18.1708 16.9194 18.0398 16.9217C17.9038 16.9242 17.773 16.9865 17.6925 17.0877C16.5172 18.5653 14.7411 19.7501 12 19.7501C9.17715 19.7501 7.41072 18.2178 6.28959 16.8681C6.22435 16.7895 6.12735 16.7481 6.02869 16.7501C5.93334 16.7521 5.86397 16.7922 5.82185 16.8542C5.07568 17.9513 4.11841 19.0847 2.16228 19.5182C1.75788 19.6079 1.35739 19.3527 1.26777 18.9483C1.17815 18.5439 1.43333 18.1434 1.83774 18.0538C3.24965 17.7409 3.92591 16.9746 4.58152 16.0106Z" fill="#1C274C"/>
</svg>
