<svg width="24" height="24" viewBox="0 0 24 24" fill="none" xmlns="http://www.w3.org/2000/svg">
<path fill-rule="evenodd" clip-rule="evenodd" d="M4.58155 6.01062C5.27232 4.99494 6.71517 5.03283 7.44347 5.90962C8.42545 7.09179 9.80981 8.25007 12 8.25007C14.2278 8.25007 15.591 7.32019 16.5186 6.15395C17.24 5.24698 18.7775 5.10127 19.5336 6.17717C20.152 7.05715 20.828 7.75807 22.1623 8.05377C22.5667 8.14339 22.8219 8.54388 22.7323 8.94828C22.6427 9.35268 22.2422 9.60786 21.8378 9.51824C19.9968 9.11026 19.0391 8.08238 18.3063 7.03964C18.2577 6.97048 18.1709 6.91941 18.0399 6.92175C17.9038 6.92418 17.7731 6.98646 17.6925 7.0877C16.5172 8.56531 14.7411 9.75007 12 9.75007C9.17718 9.75007 7.41075 8.21777 6.28962 6.86807L6.86655 6.38884L6.28962 6.86807C6.22438 6.78952 6.12738 6.74814 6.02872 6.75014C5.93337 6.75206 5.864 6.79224 5.82188 6.85417C5.07571 7.95131 4.11844 9.08474 2.16231 9.51824C1.75791 9.60786 1.35742 9.35268 1.2678 8.94828C1.17818 8.54388 1.43337 8.14339 1.83777 8.05377C3.24968 7.74088 3.92594 6.9746 4.58155 6.01062ZM4.58155 11.0106C5.27232 9.99494 6.71517 10.0328 7.44347 10.9096C8.42545 12.0918 9.80981 13.2501 12 13.2501C14.2278 13.2501 15.591 12.3202 16.5186 11.154C17.24 10.247 18.7775 10.1013 19.5336 11.1772C20.152 12.0572 20.828 12.7581 22.1623 13.0538C22.5667 13.1434 22.8219 13.5439 22.7323 13.9483C22.6427 14.3527 22.2422 14.6079 21.8378 14.5182C19.9968 14.1103 19.0391 13.0824 18.3063 12.0396C18.2577 11.9705 18.1709 11.9194 18.0399 11.9217C17.9038 11.9242 17.7731 11.9865 17.6925 12.0877C16.5172 13.5653 14.7411 14.7501 12 14.7501C9.17718 14.7501 7.41075 13.2178 6.28962 11.8681C6.22438 11.7895 6.12738 11.7481 6.02873 11.7501C5.93337 11.7521 5.864 11.7922 5.82188 11.8542C5.07571 12.9513 4.11844 14.0847 2.16231 14.5182C1.75791 14.6079 1.35742 14.3527 1.2678 13.9483C1.17818 13.5439 1.43337 13.1434 1.83777 13.0538C3.24968 12.7409 3.92594 11.9746 4.58155 11.0106ZM4.58155 16.0106C5.27232 14.9949 6.71517 15.0328 7.44347 15.9096C8.42545 17.0918 9.80981 18.2501 12 18.2501C14.2278 18.2501 15.591 17.3202 16.5186 16.1539C17.24 15.247 18.7775 15.1013 19.5336 16.1772C20.152 17.0572 20.828 17.7581 22.1623 18.0538C22.5667 18.1434 22.8219 18.5439 22.7323 18.9483C22.6427 19.3527 22.2422 19.6079 21.8378 19.5182C19.9968 19.1103 19.0391 18.0824 18.3063 17.0396C18.2577 16.9705 18.1709 16.9194 18.0399 16.9217C17.9038 16.9242 17.7731 16.9865 17.6925 17.0877C16.5172 18.5653 14.7411 19.7501 12 19.7501C9.17718 19.7501 7.41075 18.2178 6.28962 16.8681C6.22438 16.7895 6.12738 16.7481 6.02873 16.7501C5.93337 16.7521 5.864 16.7922 5.82188 16.8542C5.07571 17.9513 4.11844 19.0847 2.16231 19.5182C1.75791 19.6079 1.35742 19.3527 1.2678 18.9483C1.17818 18.5439 1.43337 18.1434 1.83777 18.0538C3.24968 17.7409 3.92594 16.9746 4.58155 16.0106Z" fill="#1C274C"/>
</svg>
