<svg width="24" height="24" viewBox="0 0 24 24" fill="none" xmlns="http://www.w3.org/2000/svg">
<path d="M12.5061 5.25002C12.0919 5.24668 11.7534 5.57975 11.75 5.99395C11.7467 6.40815 12.0797 6.74663 12.4939 6.74998C13.7281 6.75993 14.7401 7.77194 14.75 9.00605C14.7534 9.42025 15.0919 9.75332 15.5061 9.74998C15.9203 9.74663 16.2533 9.40815 16.25 8.99395C16.2334 6.94088 14.5591 5.26659 12.5061 5.25002Z" fill="#1C274C"/>
<path fill-rule="evenodd" clip-rule="evenodd" d="M3.8107 9.68519C3.77418 5.01387 7.42242 1.21207 12.0062 1.25025C16.5794 1.28835 20.2737 5.13545 20.3102 9.79841C20.3407 13.7062 17.6845 17.4318 14.0653 18.467C14.107 18.5528 14.1422 18.6356 14.1669 18.7145C14.4991 19.7769 13.8107 20.8463 12.75 21.0618V22.5C12.75 22.9142 12.4142 23.25 12 23.25C11.5858 23.25 11.25 22.9142 11.25 22.5V21.0618C10.1893 20.8463 9.50085 19.7769 9.83307 18.7145C9.86054 18.6267 9.90115 18.534 9.9491 18.4378C6.3568 17.3478 3.84104 13.5668 3.8107 9.68519ZM11.9937 2.7502C8.2934 2.71938 5.28032 5.79369 5.31065 9.67346C5.34167 13.6416 8.36864 17.2195 12.0062 17.2498C15.6606 17.2802 18.8409 13.7388 18.8102 9.81013C18.7798 5.92199 15.7045 2.78111 11.9937 2.7502ZM11.9937 18.7497C12.1664 18.7512 12.338 18.7465 12.5081 18.7358C12.5161 18.7533 12.5249 18.7706 12.5344 18.7876L12.699 19.0883L12.7362 19.1652C12.7866 19.3327 12.6866 19.545 12.4497 19.5921C12.4497 19.5921 12.4268 19.5956 12.3535 19.5978L12 19.6002C11.8349 19.6002 11.7273 19.6001 11.6465 19.5978C11.5732 19.5956 11.5503 19.5921 11.5503 19.5921C11.3134 19.545 11.2136 19.3322 11.264 19.1647C11.2658 19.1604 11.2748 19.1387 11.3009 19.0883C11.3366 19.0194 11.3871 18.9286 11.4656 18.7876C11.4764 18.7682 11.4863 18.7485 11.4952 18.7285C11.6598 18.7412 11.826 18.7483 11.9937 18.7497Z" fill="#1C274C"/>
</svg>
