<svg width="24" height="24" viewBox="0 0 24 24" fill="none" xmlns="http://www.w3.org/2000/svg">
<path fill-rule="evenodd" clip-rule="evenodd" d="M7.75 5.61804C7.75 4.31712 6.38095 3.47101 5.21738 4.05279L3.21738 5.05279C2.6245 5.34923 2.25 5.95519 2.25 6.61804V10.25H2C1.58579 10.25 1.25 10.5858 1.25 11V17C1.25 19.0711 2.92893 20.75 5 20.75C7.07107 20.75 8.75 19.0711 8.75 17V11C8.75 10.5858 8.41421 10.25 8 10.25H7.75V5.61804ZM2.75 11.75H7.25V17C7.25 18.2426 6.24264 19.25 5 19.25C3.75736 19.25 2.75 18.2426 2.75 17V11.75ZM6.25 10.25V5.61804C6.25 5.4322 6.05442 5.31132 5.8882 5.39443L3.8882 6.39443C3.8035 6.43678 3.75 6.52335 3.75 6.61804V10.25H6.25Z" fill="#1C274C"/>
<path fill-rule="evenodd" clip-rule="evenodd" d="M16.5 4.25C13.0482 4.25 10.25 7.04822 10.25 10.5C10.25 13.698 12.6518 16.3349 15.75 16.7055V19.25H13.5C13.0858 19.25 12.75 19.5858 12.75 20C12.75 20.4142 13.0858 20.75 13.5 20.75H19.5C19.9142 20.75 20.25 20.4142 20.25 20C20.25 19.5858 19.9142 19.25 19.5 19.25H17.25V16.7055C20.3482 16.3349 22.75 13.698 22.75 10.5C22.75 7.04822 19.9518 4.25 16.5 4.25ZM16.5 15.25C19.1234 15.25 21.25 13.1234 21.25 10.5C21.25 7.87665 19.1234 5.75 16.5 5.75C13.8766 5.75 11.75 7.87665 11.75 10.5C11.75 13.1234 13.8766 15.25 16.5 15.25Z" fill="#1C274C"/>
</svg>
