<svg width="24" height="24" viewBox="0 0 24 24" fill="none" xmlns="http://www.w3.org/2000/svg">
<path fill-rule="evenodd" clip-rule="evenodd" d="M16.4746 4.3748L19.6474 7.55081C20.6549 8.55926 21.4713 9.3765 21.9969 10.0857C22.5382 10.8162 22.8881 11.5854 22.6982 12.4634C22.5083 13.3416 21.8718 13.8973 21.0771 14.3384C20.3055 14.7666 19.2245 15.1728 17.8906 15.6739L15.9136 16.4167C15.1192 16.7152 14.9028 16.8082 14.742 16.9475C14.6611 17.0175 14.5887 17.0968 14.5263 17.1838C14.4021 17.3569 14.329 17.5813 14.1037 18.4001L14.0914 18.445C13.8627 19.2763 13.6739 19.9624 13.4671 20.4775C13.2573 21.0004 12.974 21.4956 12.465 21.7861C12.1114 21.9879 11.7112 22.0937 11.3041 22.0931C10.7179 22.0922 10.227 21.8015 9.78647 21.4506C9.35243 21.1049 8.8497 20.6017 8.24065 19.992L6.65338 18.4031L2.5306 22.5301C2.23786 22.8231 1.76298 22.8234 1.46994 22.5306C1.1769 22.2379 1.17666 21.763 1.4694 21.4699L5.59326 17.3419L4.05842 15.8055C3.45318 15.1997 2.9536 14.6996 2.61002 14.2679C2.26127 13.8297 1.97215 13.3422 1.96848 12.76C1.96586 12.3452 2.07354 11.9372 2.28053 11.5778C2.57116 11.0732 3.06341 10.792 3.58296 10.5835C4.09477 10.378 4.77597 10.1902 5.60112 9.96274L5.6457 9.95045C6.46601 9.72429 6.69053 9.65097 6.86346 9.52647C6.9526 9.4623 7.0337 9.38758 7.10499 9.30392C7.24338 9.14153 7.33502 8.92333 7.62798 8.12376L8.34447 6.16821C8.83874 4.8191 9.23907 3.72638 9.66362 2.94619C10.1005 2.14333 10.654 1.4982 11.5357 1.30368C12.4175 1.10913 13.1908 1.46166 13.9246 2.00639C14.6375 2.53568 15.4597 3.35873 16.4746 4.3748ZM13.0304 3.21076C12.4277 2.76331 12.1086 2.71336 11.8588 2.76846C11.609 2.82358 11.3402 3.00339 10.9812 3.66316C10.6161 4.33404 10.2525 5.32076 9.73087 6.74439L9.03642 8.6398C9.02304 8.67631 9.00987 8.71235 8.99686 8.74795C8.76267 9.38869 8.58179 9.8836 8.24665 10.2769C8.09712 10.4523 7.92696 10.6091 7.73987 10.7438C7.3205 11.0457 6.81257 11.1853 6.15537 11.366C6.11884 11.376 6.08184 11.3862 6.04438 11.3965C5.16337 11.6394 4.56523 11.8055 4.1418 11.9755C3.71693 12.146 3.615 12.2663 3.58038 12.3264C3.50616 12.4553 3.46751 12.6016 3.46845 12.7505C3.46889 12.8202 3.49835 12.9753 3.78366 13.3338C4.06799 13.691 4.50615 14.1313 5.15229 14.7781L9.26897 18.899C9.91923 19.5499 10.3618 19.9913 10.721 20.2773C11.0814 20.5644 11.2369 20.593 11.3064 20.5931C11.4519 20.5933 11.595 20.5555 11.7215 20.4833C11.7821 20.4487 11.9033 20.3467 12.0751 19.9188C12.2462 19.4924 12.4133 18.8897 12.6574 18.0022C12.6677 17.9648 12.6778 17.9279 12.6878 17.8915C12.8678 17.2353 13.0069 16.7284 13.3075 16.3094C13.4384 16.1269 13.5903 15.9605 13.76 15.8135C14.15 15.4759 14.642 15.2914 15.2786 15.0528C15.314 15.0396 15.3498 15.0262 15.386 15.0125L17.3032 14.2922C18.7112 13.7632 19.6865 13.3946 20.3491 13.0269C21.0001 12.6656 21.178 12.3968 21.2321 12.1464C21.2863 11.8959 21.2353 11.5774 20.7917 10.9788C20.3403 10.3695 19.6045 9.63023 18.541 8.56569L15.4588 5.48027C14.3876 4.40802 13.6433 3.6658 13.0304 3.21076Z" fill="#1C274C"/>
</svg>
