<svg width="24" height="24" viewBox="0 0 24 24" fill="none" xmlns="http://www.w3.org/2000/svg">
<path d="M10.6847 1.52646C10.9754 1.23136 10.9718 0.756498 10.6767 0.465828C10.3816 0.175158 9.90675 0.178748 9.61609 0.473848L7.86568 2.25093C7.5781 2.54289 7.57811 3.01161 7.86569 3.30356L9.6161 5.08052C9.90678 5.37562 10.3816 5.37919 10.6767 5.08851C10.9718 4.79783 10.9754 4.32297 10.6847 4.02788L10.1472 3.48216C10.7108 3.47694 11.3258 3.47689 12 3.47689C14.1428 3.47689 15.6734 3.47853 16.8363 3.63725C17.9765 3.79287 18.6508 4.08679 19.1477 4.59123C19.6461 5.09725 19.9377 5.7864 20.0917 6.94927C20.2485 8.13258 20.25 9.68905 20.25 11.8634C20.25 14.0378 20.2485 15.5943 20.0917 16.7776C19.9377 17.9405 19.6461 18.6296 19.1477 19.1357C18.6508 19.6401 17.9765 19.934 16.8363 20.0896C15.6734 20.2484 14.1428 20.25 12 20.25C9.85717 20.25 8.32662 20.2484 7.1637 20.0896C6.02354 19.934 5.34923 19.6401 4.85233 19.1357C4.35388 18.6296 4.06227 17.9405 3.90826 16.7776C3.75155 15.5943 3.75 14.0378 3.75 11.8634C3.75 9.68905 3.75155 8.13258 3.90826 6.94927C4.06227 5.7864 4.35388 5.09725 4.85233 4.59123C5.14301 4.29614 5.13943 3.82128 4.84434 3.5306C4.54925 3.23992 4.07439 3.2435 3.78371 3.53859C2.96414 4.37059 2.59674 5.4272 2.42124 6.75234C2.24998 8.04555 2.24999 9.70138 2.25 11.8072V11.9197C2.24999 14.0255 2.24998 15.6813 2.42124 16.9746C2.59674 18.2997 2.96414 19.3563 3.78371 20.1883C4.60483 21.0219 5.65019 21.397 6.96085 21.5759C8.23694 21.75 9.86991 21.75 11.9423 21.75H12.0577C14.1301 21.75 15.7631 21.75 17.0391 21.5759C18.3498 21.397 19.3952 21.0219 20.2163 20.1883C21.0359 19.3563 21.4033 18.2997 21.5788 16.9746C21.75 15.6814 21.75 14.0255 21.75 11.9198V11.8072C21.75 9.70138 21.75 8.04554 21.5788 6.75234C21.4033 5.4272 21.0359 4.37059 20.2163 3.53859C19.3952 2.70502 18.3498 2.32992 17.0391 2.15103C15.7631 1.97687 14.1301 1.97688 12.0577 1.97689L11.9829 1.97689C11.3608 1.97689 10.7794 1.97689 10.2367 1.98132L10.6847 1.52646Z" fill="#1C274C"/>
<path d="M16.0303 10.0303C16.3232 9.73744 16.3232 9.26256 16.0303 8.96967C15.7374 8.67678 15.2626 8.67678 14.9697 8.96967L10.5 13.4393L9.03033 11.9697C8.73744 11.6768 8.26256 11.6768 7.96967 11.9697C7.67678 12.2626 7.67678 12.7374 7.96967 13.0303L9.96967 15.0303C10.2626 15.3232 10.7374 15.3232 11.0303 15.0303L16.0303 10.0303Z" fill="#1C274C"/>
</svg>
