<svg width="24" height="24" viewBox="0 0 24 24" fill="none" xmlns="http://www.w3.org/2000/svg">
<path d="M8.27953 4.50433C9.29529 3.87392 10.0095 3.43175 10.6065 3.14141C11.1882 2.85854 11.6002 2.75021 12 2.75021C12.3998 2.75021 12.8118 2.85854 13.3935 3.14141C13.9905 3.43175 14.7047 3.87392 15.7205 4.50433L17.7205 5.74559C18.6813 6.34191 19.3559 6.76156 19.8591 7.14691C20.3487 7.52186 20.6304 7.83127 20.8229 8.18307C21.0162 8.53611 21.129 8.94886 21.1884 9.58125C21.2492 10.2288 21.25 11.046 21.25 12.2041V13.7252C21.25 15.6961 21.2485 17.1014 21.1098 18.1685C20.9736 19.2165 20.717 19.8246 20.2892 20.2671C19.8649 20.706 19.2871 20.9666 18.2858 21.1059C17.2602 21.2485 15.9075 21.2502 14 21.2502C13.5858 21.2502 13.25 21.586 13.25 22.0002C13.25 22.4144 13.5858 22.7502 14 22.7502H14.0581C15.8944 22.7502 17.3515 22.7502 18.4924 22.5916C19.6695 22.4279 20.6204 22.0826 21.3676 21.3097C22.1114 20.5403 22.4406 19.5672 22.5973 18.3618C22.75 17.1868 22.75 15.684 22.75 13.7801V12.1674C22.75 11.0544 22.75 10.1667 22.6818 9.44092C22.6114 8.69195 22.4647 8.05834 22.1387 7.46284C21.8121 6.86611 21.3599 6.40691 20.7711 5.95602C20.2026 5.52061 19.4649 5.06281 18.5437 4.49109L16.4771 3.20853C15.5036 2.6043 14.7242 2.12055 14.0495 1.79245C13.3515 1.45303 12.7081 1.25021 12 1.25021C11.2919 1.25021 10.6485 1.45303 9.95056 1.79245C9.27587 2.12055 8.49646 2.60428 7.52292 3.2085L5.45629 4.49111C4.53509 5.06282 3.79745 5.52061 3.22891 5.95602C2.64016 6.4069 2.18796 6.86611 1.86132 7.46284C1.46281 8.19088 1.33129 8.97878 1.28138 9.9622C1.26038 10.3759 1.57872 10.7283 1.9924 10.7492C2.40608 10.7702 2.75845 10.4519 2.77945 10.0382C2.82532 9.13429 2.94045 8.6154 3.1771 8.18307C3.36966 7.83127 3.65133 7.52186 4.14093 7.14691C4.64411 6.76156 5.3187 6.34191 6.27954 5.74559L8.27953 4.50433Z" fill="#1C274C"/>
<path d="M2 12.25C1.58579 12.25 1.25 12.5858 1.25 13C1.25 13.4142 1.58579 13.75 2 13.75C6.55635 13.75 10.25 17.4437 10.25 22C10.25 22.4142 10.5858 22.75 11 22.75C11.4142 22.75 11.75 22.4142 11.75 22C11.75 16.6152 7.38478 12.25 2 12.25Z" fill="#1C274C"/>
<path d="M1.25 16C1.25 15.5858 1.58579 15.25 2 15.25C5.72792 15.25 8.75 18.2721 8.75 22C8.75 22.4142 8.41421 22.75 8 22.75C7.58579 22.75 7.25 22.4142 7.25 22C7.25 19.1005 4.8995 16.75 2 16.75C1.58579 16.75 1.25 16.4142 1.25 16Z" fill="#1C274C"/>
<path d="M2 18.25C1.58579 18.25 1.25 18.5858 1.25 19C1.25 19.4142 1.58579 19.75 2 19.75C3.24264 19.75 4.25 20.7574 4.25 22C4.25 22.4142 4.58579 22.75 5 22.75C5.41421 22.75 5.75 22.4142 5.75 22C5.75 19.9289 4.07107 18.25 2 18.25Z" fill="#1C274C"/>
</svg>
