<svg width="24" height="24" viewBox="0 0 24 24" fill="none" xmlns="http://www.w3.org/2000/svg">
<path d="M15.6646 2.82916C16.0351 2.64392 16.4856 2.79409 16.6708 3.16457L17.1708 4.16457C17.3561 4.53505 17.2059 4.98556 16.8354 5.1708C16.4649 5.35604 16.0144 5.20588 15.8292 4.83539L15.3292 3.83539C15.1439 3.46491 15.2941 3.0144 15.6646 2.82916Z" fill="#1C274C"/>
<path fill-rule="evenodd" clip-rule="evenodd" d="M1.25 14.5C1.25 9.94363 4.94365 6.24998 9.5 6.24998C11.5081 6.24998 13.3487 6.96745 14.7793 8.16003L16.4697 6.46965C16.7626 6.17676 17.2374 6.17676 17.5303 6.46965C17.8232 6.76254 17.8232 7.23742 17.5303 7.53031L15.84 9.22069C17.0325 10.6513 17.75 12.4919 17.75 14.5C17.75 19.0563 14.0563 22.75 9.5 22.75C4.94365 22.75 1.25 19.0563 1.25 14.5ZM9.5 7.74998C5.77208 7.74998 2.75 10.7721 2.75 14.5C2.75 18.2279 5.77208 21.25 9.5 21.25C13.2279 21.25 16.25 18.2279 16.25 14.5C16.25 10.7721 13.2279 7.74998 9.5 7.74998Z" fill="#1C274C"/>
<path d="M19.8354 6.82916C19.4649 6.64392 19.0144 6.79409 18.8292 7.16457C18.6439 7.53505 18.7941 7.98556 19.1646 8.1708L20.1646 8.6708C20.5351 8.85604 20.9856 8.70587 21.1708 8.33539C21.3561 7.96491 21.2059 7.5144 20.8354 7.32916L19.8354 6.82916Z" fill="#1C274C"/>
<path d="M20.5303 4.53031C20.8232 4.23742 20.8232 3.76254 20.5303 3.46965C20.2374 3.17676 19.7626 3.17676 19.4697 3.46965L18.4697 4.46965C18.1768 4.76254 18.1768 5.23742 18.4697 5.53031C18.7626 5.8232 19.2374 5.8232 19.5303 5.53031L20.5303 4.53031Z" fill="#1C274C"/>
</svg>
