<svg width="24" height="24" viewBox="0 0 24 24" fill="none" xmlns="http://www.w3.org/2000/svg">
<path fill-rule="evenodd" clip-rule="evenodd" d="M22.2954 6.31065C22.6761 6.47382 22.8525 6.91473 22.6893 7.29545L22 7.00001C22.6893 7.29545 22.6894 7.29527 22.6893 7.29545L22.6886 7.29713L22.6875 7.29961L22.6843 7.30697L22.6737 7.33105C22.6647 7.35118 22.6519 7.3794 22.6353 7.41508C22.602 7.48643 22.5533 7.58776 22.4889 7.71416C22.36 7.96681 22.1676 8.32069 21.9085 8.73647C21.4829 9.41951 20.8724 10.2777 20.062 11.1302L21.0303 12.0985C21.3232 12.3914 21.3232 12.8663 21.0303 13.1592C20.7374 13.4521 20.2625 13.4521 19.9697 13.1592L18.9691 12.1586C18.3094 12.7113 17.5529 13.23 16.6951 13.6562L17.6286 15.091C17.8545 15.4382 17.7562 15.9027 17.409 16.1286C17.0618 16.3546 16.5973 16.2562 16.3713 15.909L15.2822 14.2352C14.5028 14.4897 13.659 14.6626 12.75 14.7246V16.5C12.75 16.9142 12.4142 17.25 12 17.25C11.5858 17.25 11.25 16.9142 11.25 16.5V14.7246C10.369 14.6645 9.54916 14.5002 8.78989 14.2584L7.71581 15.9091C7.48991 16.2563 7.02532 16.3546 6.67813 16.1287C6.33095 15.9028 6.23263 15.4382 6.45853 15.091L7.37095 13.6888C6.50657 13.2667 5.74387 12.7502 5.07848 12.1983L4.1175 13.1592C3.82461 13.4521 3.34974 13.4521 3.05684 13.1592C2.76395 12.8664 2.76395 12.3915 3.05684 12.0986L3.98061 11.1748C3.15605 10.3151 2.53531 9.44656 2.10283 8.75468C1.8399 8.33404 1.64466 7.97566 1.51394 7.7197C1.44854 7.59164 1.39916 7.48895 1.36543 7.41665C1.34856 7.38048 1.33559 7.35189 1.32648 7.33149L1.31568 7.3071L1.31244 7.29966L1.31135 7.29714L1.31095 7.29619C1.31087 7.29602 1.31063 7.29545 1.99998 7.00001L1.31095 7.29619C1.14778 6.91547 1.32382 6.47382 1.70455 6.31065C2.08495 6.14762 2.52545 6.32356 2.68894 6.70363C2.68888 6.7035 2.689 6.70376 2.68894 6.70363L2.6899 6.70582L2.69597 6.71953C2.70186 6.73273 2.71146 6.75392 2.72479 6.78249C2.75145 6.83965 2.79302 6.92626 2.84982 7.03748C2.96351 7.2601 3.13768 7.58028 3.37479 7.95961C3.85039 8.72048 4.57163 9.7071 5.55567 10.6216C6.42157 11.4263 7.48265 12.1676 8.75171 12.6558C9.7062 13.023 10.7854 13.25 12 13.25C13.2417 13.25 14.3421 13.0128 15.3125 12.6308C16.5739 12.1343 17.6277 11.3883 18.4867 10.582C19.4562 9.67198 20.1669 8.69517 20.6354 7.94321C20.869 7.56832 21.0406 7.25228 21.1526 7.03268C21.2086 6.92296 21.2495 6.83758 21.2758 6.78125C21.2889 6.7531 21.2983 6.73224 21.3041 6.71925L21.3101 6.70577L21.3106 6.70457C21.3106 6.70467 21.3107 6.70447 21.3106 6.70457M22.2954 6.31065C21.9148 6.14753 21.4739 6.32405 21.3106 6.70457L22.2954 6.31065ZM2.68894 6.70363C2.68888 6.7035 2.689 6.70376 2.68894 6.70363V6.70363Z" fill="#1C274C"/>
</svg>
